<svg width="16" height="16" viewBox="0 0 16 16" fill="none" xmlns="http://www.w3.org/2000/svg">
<path d="M9.71445 6.69302C9.43459 6.99838 9.45526 7.4728 9.76062 7.75267C10.066 8.03254 10.5404 8.01187 10.8203 7.7065L13.7526 4.50699C14.0154 4.22029 14.0154 3.7803 13.7527 3.49356L10.8203 0.293368C10.5405 -0.0120257 10.0661 -0.0327462 9.76068 0.247088C9.45529 0.526922 9.43457 1.00134 9.7144 1.30674L11.4953 3.25028L4.60029 3.24993C2.52914 3.24983 0.850098 4.92879 0.850098 6.99993V7.06671C0.850098 7.48092 1.18588 7.81671 1.6001 7.81671C2.01431 7.81671 2.3501 7.48092 2.3501 7.06671V6.99993C2.3501 5.75725 3.35753 4.74987 4.60021 4.74993L11.495 4.75028L9.71445 6.69302Z" fill="var(--neutral-600)"/>
<path d="M6.28588 9.3068C6.56571 9.0014 6.54499 8.52698 6.2396 8.24715C5.9342 7.96731 5.45978 7.98803 5.17994 8.29343L2.24759 11.4936C1.98486 11.7803 1.98488 12.2203 2.24762 12.507L5.17998 15.7068C5.45983 16.0122 5.93425 16.0329 6.23963 15.753C6.54501 15.4732 6.5657 14.9988 6.28584 14.6934L4.50542 12.7506H11.4C13.4711 12.7506 15.15 11.0716 15.15 9.00058V8.93365C15.15 8.51944 14.8142 8.18365 14.4 8.18365C13.9858 8.18365 13.65 8.51944 13.65 8.93365V9.00058C13.65 10.2432 12.6427 11.2506 11.4 11.2506H4.50478L6.28588 9.3068Z" fill="var(--neutral-600)"/>
</svg>
