<svg width="16" height="16" viewBox="0 0 16 16" fill="none" xmlns="http://www.w3.org/2000/svg">
<path d="M6.38128 1.38128C6.72299 1.03957 7.27701 1.03957 7.61872 1.38128C7.96043 1.72299 7.96043 2.27701 7.61872 2.61872L3.11244 7.125H15C15.4833 7.125 15.875 7.51675 15.875 8C15.875 8.48325 15.4833 8.875 15 8.875H3.11244L7.61872 13.3813C7.96043 13.723 7.96043 14.277 7.61872 14.6187C7.27701 14.9604 6.72299 14.9604 6.38128 14.6187L0.381282 8.61872C0.210427 8.44786 0.125 8.22393 0.125 8C0.125 7.77607 0.210427 7.55214 0.381282 7.38128L6.38128 1.38128Z" fill="#474E5A"/>
</svg>
