<svg width="16" height="16" viewBox="0 0 16 16" fill="none" xmlns="http://www.w3.org/2000/svg">
<path fill-rule="evenodd" clip-rule="evenodd" d="M14.9977 8.19089C15.6092 7.64898 16.0002 6.87952 16.0002 6V5.90012C16.0002 5.58415 15.9687 5.26896 15.9061 4.95925L15.2757 1.83964L15.2729 1.82792C15.1493 1.3036 14.9237 0.814761 14.4989 0.46826C14.0702 0.118638 13.5447 2.32458e-05 13 2.20537e-05L3 0C2.45536 0 1.92982 0.118541 1.50106 0.46812C1.0761 0.814602 0.850422 1.30347 0.726786 1.8279L0.72402 1.83963L0.0936206 4.95927C0.0310375 5.26897 -0.000488281 5.58414 -0.000488281 5.90011V6C-0.000488281 6.87964 0.390631 7.64918 1.00228 8.19109C1.00077 8.21053 1 8.23017 1 8.25V13.75C1 14.9926 2.00736 16 3.25 16H12.75C13.9926 16 15 14.9926 15 13.75V8.25C15 8.2301 14.9992 8.21039 14.9977 8.19089ZM1.5639 5.25637L2.18938 2.16112C2.27008 1.82536 2.37436 1.69148 2.44893 1.63068C2.5205 1.57233 2.66423 1.5 3 1.5L5.13914 1.5L4.91916 5.83281V5.85184C4.91916 6.75985 4.16621 7.5185 3.20933 7.5185C2.20733 7.5185 1.49951 6.78036 1.49951 6V5.90011C1.49951 5.68392 1.52108 5.46828 1.5639 5.25637ZM6.41924 5.86925L6.64107 1.50001L9.35867 1.50001L9.5805 5.86926C9.5716 6.81148 8.84083 7.51853 7.99982 7.51853C7.15886 7.51853 6.42814 6.81151 6.41924 5.86925ZM11.0806 5.83283L10.8606 1.50002L13 1.50002C13.3356 1.50002 13.4793 1.57235 13.5508 1.6307C13.6254 1.6915 13.7297 1.8254 13.8103 2.16111L14.4358 5.25637C14.4787 5.46827 14.5002 5.68393 14.5002 5.90012V6C14.5002 6.78037 13.7924 7.51853 12.7904 7.51853C11.8335 7.51853 11.0806 6.75987 11.0806 5.85186V5.83283ZM12.7904 9.01853C11.8162 9.01853 10.9371 8.58803 10.3463 7.90493C9.78443 8.58417 8.94686 9.01853 7.99982 9.01853C7.05278 9.01853 6.21526 8.58417 5.65344 7.90494C5.06261 8.58802 4.18353 9.0185 3.20933 9.0185C2.96731 9.0185 2.72967 8.99264 2.5 8.94337V11.5H13.5V8.94334C13.2703 8.99264 13.0325 9.01853 12.7904 9.01853ZM2.5 13.75V13H13.5V13.75C13.5 14.1642 13.1642 14.5 12.75 14.5H3.25C2.83579 14.5 2.5 14.1642 2.5 13.75Z" fill="var(--neutral-600)"/>
</svg>
