<svg width="16" height="16" viewBox="0 0 16 16" fill="none" xmlns="http://www.w3.org/2000/svg">
<path d="M8.75 11.2501C9.05361 11.022 9.25 10.659 9.25 10.25C9.25 9.55964 8.69036 9 8 9C7.30964 9 6.75 9.55964 6.75 10.25C6.75 10.659 6.94639 11.022 7.25 11.2501V12.25C7.25 12.6642 7.58579 13 8 13C8.41421 13 8.75 12.6642 8.75 12.25V11.2501Z" fill="#474E5A"/>
<path fill-rule="evenodd" clip-rule="evenodd" d="M3.5 4V6H2.5C1.94772 6 1.5 6.44772 1.5 7V13C1.5 14.6569 2.84315 16 4.5 16H11.5C13.1569 16 14.5 14.6569 14.5 13V7C14.5 6.44772 14.0523 6 13.5 6H12.5V4C12.5 1.79086 10.7091 0 8.5 0H7.5C5.29086 0 3.5 1.79086 3.5 4ZM11 6V4C11 2.61929 9.88071 1.5 8.5 1.5H7.5C6.11929 1.5 5 2.61929 5 4V6H11ZM3 13V7.5H13V13C13 13.8284 12.3284 14.5 11.5 14.5H4.5C3.67157 14.5 3 13.8284 3 13Z" fill="#474E5A"/>
</svg>
