<svg width="16" height="16" viewBox="0 0 16 16" fill="none" xmlns="http://www.w3.org/2000/svg">
<path d="M4 9.75C4 9.33579 4.33579 9 4.75 9H6.75C7.16421 9 7.5 9.33579 7.5 9.75C7.5 10.1642 7.16421 10.5 6.75 10.5H4.75C4.33579 10.5 4 10.1642 4 9.75Z" fill="#474E5A"/>
<path d="M4.75 5C4.33579 5 4 5.33579 4 5.75C4 6.16421 4.33579 6.5 4.75 6.5H10.75C11.1642 6.5 11.5 6.16421 11.5 5.75C11.5 5.33579 11.1642 5 10.75 5H4.75Z" fill="#474E5A"/>
<path fill-rule="evenodd" clip-rule="evenodd" d="M1 12.5V3.5C1 2.11929 2.11929 1 3.5 1H12.5C13.8807 1 15 2.11929 15 3.5L15 10.1716C15 10.702 14.7893 11.2107 14.4142 11.5858L11.5858 14.4142C11.2107 14.7893 10.702 15 10.1716 15L3.5 15C2.11929 15 1 13.8807 1 12.5ZM2.5 12.5L2.5 3.5C2.5 2.94772 2.94772 2.5 3.5 2.5L12.5 2.5C13.0523 2.5 13.5 2.94772 13.5 3.5L13.5 8.5L10.25 8.5C9.2835 8.5 8.5 9.2835 8.5 10.25L8.5 13.5L3.5 13.5C2.94771 13.5 2.5 13.0523 2.5 12.5ZM10 13.5H10.1716C10.3042 13.5 10.4314 13.4473 10.5251 13.3536L13.3536 10.5251C13.4473 10.4314 13.5 10.3042 13.5 10.1716V10H10.25C10.1119 10 10 10.1119 10 10.25V13.5Z" fill="#474E5A"/>
</svg>
