<svg width="16" height="16" viewBox="0 0 16 16" fill="none" xmlns="http://www.w3.org/2000/svg">
<path fill-rule="evenodd" clip-rule="evenodd" d="M10.5788 11.8163C9.57969 12.5599 8.34124 13 7 13C3.68629 13 1 10.3137 1 7C1 3.68629 3.68629 1 7 1C10.3137 1 13 3.68629 13 7C13 8.34124 12.5599 9.57969 11.8163 10.5788L15.2437 14.0063C15.5854 14.348 15.5854 14.902 15.2437 15.2437C14.902 15.5854 14.348 15.5854 14.0063 15.2437L10.5788 11.8163ZM11.25 7C11.25 9.34721 9.34721 11.25 7 11.25C4.65279 11.25 2.75 9.34721 2.75 7C2.75 4.65279 4.65279 2.75 7 2.75C9.34721 2.75 11.25 4.65279 11.25 7Z" fill="var(--neutral-600)"/>
</svg>
