<svg width="16" height="16" viewBox="0 0 16 16" fill="none" xmlns="http://www.w3.org/2000/svg">
<path d="M3.75 1C2.23122 1 1 2.23122 1 3.75V12.25C1 13.7688 2.23122 15 3.75 15H8C8.41421 15 8.75 14.6642 8.75 14.25C8.75 13.8358 8.41421 13.5 8 13.5H3.75C3.05964 13.5 2.5 12.9404 2.5 12.25V3.75C2.5 3.05964 3.05964 2.5 3.75 2.5H8C8.41421 2.5 8.75 2.16421 8.75 1.75C8.75 1.33579 8.41421 1 8 1H3.75Z" fill="var(--neutral-600)"/>
<path d="M12.0303 3.96967C11.7374 3.67678 11.2626 3.67678 10.9697 3.96967C10.6768 4.26256 10.6768 4.73744 10.9697 5.03033L13.1893 7.25H6C5.58579 7.25 5.25 7.58579 5.25 8C5.25 8.41421 5.58579 8.75 6 8.75H13.1893L10.9697 10.9697C10.6768 11.2626 10.6768 11.7374 10.9697 12.0303C11.2626 12.3232 11.7374 12.3232 12.0303 12.0303L15.5303 8.53033C15.671 8.38968 15.75 8.19891 15.75 8C15.75 7.80109 15.671 7.61032 15.5303 7.46967L12.0303 3.96967Z" fill="var(--neutral-600)"/>
</svg>
