<svg width="16" height="16" viewBox="0 0 16 16" fill="none" xmlns="http://www.w3.org/2000/svg">
<path fill-rule="evenodd" clip-rule="evenodd" d="M16 8C16 12.4183 12.4183 16 8 16C3.58172 16 0 12.4183 0 8C0 3.58172 3.58172 0 8 0C12.4183 0 16 3.58172 16 8ZM8.69589 14.4632C8.46726 14.4875 8.23509 14.5 8 14.5C7.7649 14.5 7.53272 14.4875 7.30408 14.4632C7.17949 14.1038 7.02843 13.6335 6.87719 13.079C6.72246 12.5116 6.56848 11.8594 6.44232 11.15H9.55765C9.43149 11.8594 9.27752 12.5116 9.12278 13.079C8.97154 13.6335 8.82048 14.1038 8.69589 14.4632ZM10.1723 14.1282C11.6749 13.5955 12.9234 12.5259 13.6871 11.15H10.8768C10.7357 11.9951 10.5559 12.7651 10.377 13.4211C10.308 13.6738 10.2391 13.9102 10.1723 14.1282ZM14.233 9.84998C14.4067 9.26364 14.5 8.64271 14.5 8C14.5 7.35727 14.4067 6.73633 14.2329 6.14998H11.0525C11.1137 6.74624 11.1499 7.36657 11.1499 8.00004C11.1499 8.63346 11.1137 9.25375 11.0526 9.84998H14.233ZM13.6871 4.84998C12.9234 3.4741 11.6748 2.40448 10.1722 1.87184C10.2391 2.0898 10.308 2.32625 10.377 2.57901C10.5559 3.23495 10.7357 4.00488 10.8768 4.84998H13.6871ZM8.69587 1.53681C8.82046 1.89624 8.97153 2.36649 9.12278 2.92106C9.27751 3.48841 9.43148 4.1406 9.55763 4.84998H6.44235C6.56849 4.1406 6.72246 3.48841 6.87719 2.92106C7.02844 2.3665 7.17951 1.89624 7.3041 1.53681C7.53274 1.51248 7.76491 1.5 8 1.5C8.23508 1.5 8.46725 1.51248 8.69587 1.53681ZM5.82772 1.87185C4.32514 2.4045 3.07664 3.47411 2.31293 4.84998H5.12318C5.2643 4.00488 5.44411 3.23495 5.623 2.57901C5.69194 2.32625 5.7609 2.08981 5.82772 1.87185ZM1.76706 6.14998C1.59329 6.73633 1.5 7.35727 1.5 8C1.5 8.64271 1.59328 9.26364 1.76704 9.84998H4.94742C4.88626 9.25375 4.8501 8.63346 4.8501 8.00004C4.8501 7.36657 4.88626 6.74624 4.94743 6.14998H1.76706ZM2.3129 11.15C3.0766 12.5259 4.32511 13.5955 5.82769 14.1281C5.76089 13.9102 5.69193 13.6738 5.623 13.4211C5.4441 12.7651 5.26428 11.9951 5.12316 11.15H2.3129ZM9.84987 8.00004C9.84987 8.63279 9.81076 9.25377 9.74526 9.84998H6.25472C6.18921 9.25377 6.1501 8.63279 6.1501 8.00004C6.1501 7.36724 6.18921 6.74622 6.25473 6.14998H9.74524C9.81076 6.74622 9.84987 7.36724 9.84987 8.00004Z" fill="#474E5A"/>
</svg>
